<svg width="177" height="216" viewBox="0 0 177 216" fill="none" xmlns="http://www.w3.org/2000/svg">
<g id="BOLINHAS_BANNER">
<circle id="Ellipse 4" cx="87" cy="155" r="17" fill="#0592BF"/>
<path id="Ellipse 10" d="M117 216C117 216 110.284 216 102 216C93.7157 216 85.5 216 86.9999 216C86.9999 207.716 93.7157 201 102 201C110.284 201 117 207.716 117 216Z" fill="#0592BF"/>
<path id="Ellipse 12" d="M36 216C36 216 27.9888 216 18.1064 216C8.22404 216 -1.57648 216 0.212801 216C0.212801 206.059 8.22404 198 18.1064 198C27.9888 198 36 206.059 36 216Z" fill="#0592BF"/>
<path id="Ellipse 11" d="M177 172C177 172 177 178.716 177 187C177 195.284 177 203.5 177 202C168.716 202 162 195.284 162 187C162 178.716 168.716 172 177 172Z" fill="#0592BF"/>
<circle id="Ellipse 6" cx="143" cy="101" r="15" fill="#0592BF"/>
<circle id="Ellipse 7" cx="125" cy="33" r="15" fill="#0592BF"/>
<path id="Ellipse 9" d="M177 13.5C177 21.7843 177.284 25 169 25C160.716 25 154 18.2843 154 10C154 1.71574 155.216 0 163.5 0C171.784 0 177 5.21573 177 13.5Z" fill="#0592BF"/>
<circle id="Ellipse 8" cx="41.5" cy="110.5" r="9.5" fill="#0592BF"/>
</g>
</svg>
